<?xml version="1.0" standalone="no"?>
<!DOCTYPE svg PUBLIC "-//W3C//DTD SVG 20010904//EN"
 "http://www.w3.org/TR/2001/REC-SVG-20010904/DTD/svg10.dtd">
<svg version="1.0" xmlns="http://www.w3.org/2000/svg"
 width="173.000000pt" height="167.000000pt" viewBox="0 0 173.000000 167.000000"
 preserveAspectRatio="xMidYMid meet">

<g transform="translate(0.000000,167.000000) scale(0.100000,-0.100000)"
fill="#000000" stroke="none">
<path d="M210 1123 c-30 -12 -39 -39 -40 -116 0 -70 3 -81 25 -102 24 -25 26
-25 215 -25 l190 0 0 -420 0 -420 58 1 c68 1 107 14 152 52 57 48 59 67 60
445 l0 342 181 0 c175 0 212 5 231 34 4 6 8 50 8 98 0 79 -2 88 -22 102 -20
14 -86 16 -533 15 -280 0 -517 -3 -525 -6z"/>
</g>
</svg>
